<svg xmlns="http://www.w3.org/2000/svg" width="370" height="370" viewBox="0 0 370 370" fill="none"><g filter="url(#filter0_d_173_129)"><mask id="path-1-outside-1_173_129" maskUnits="userSpaceOnUse" x="9.25071" y="2.09253" width="352.63" height="366.137" fill="black"><rect fill="white" x="9.25071" y="2.09253" width="352.63" height="366.137"></rect><path d="M285.21 229.31C285.441 227.682 285.65 226.058 285.838 224.426C286.026 222.794 286.188 221.163 286.333 219.527C286.473 217.888 286.591 216.254 286.686 214.617C286.781 212.979 286.851 211.339 286.903 209.697C286.973 207.384 286.994 205.051 286.901 202.731C286.809 200.41 286.606 198.097 286.216 195.824C285.831 193.553 285.269 191.314 284.459 189.141C283.648 186.969 282.595 184.865 281.228 182.847C280.675 182.033 280.069 181.254 279.409 180.53C278.752 179.801 278.043 179.122 277.289 178.494C276.534 177.866 275.737 177.298 274.9 176.783C274.061 176.274 273.185 175.826 272.278 175.456C270.799 174.846 269.369 174.453 267.978 174.246C266.588 174.04 265.244 174.023 263.935 174.172C262.626 174.321 261.359 174.639 260.133 175.094C258.904 175.554 257.717 176.151 256.558 176.867C255.508 177.518 254.379 177.871 253.25 177.952C252.126 178.035 251.005 177.852 249.981 177.441C248.959 177.025 248.034 176.38 247.295 175.537C246.556 174.693 246.004 173.65 245.731 172.445C245.666 172.159 245.601 171.873 245.539 171.582C245.474 171.297 245.417 171.008 245.357 170.724C245.298 170.441 245.246 170.154 245.195 169.867C245.143 169.58 245.095 169.301 245.049 169.016C244.837 167.657 244.503 166.301 244.04 164.983C243.581 163.672 242.998 162.402 242.291 161.221C241.583 160.041 240.751 158.951 239.79 157.994C238.832 157.032 237.748 156.211 236.535 155.554C234.997 154.725 233.336 154.24 231.637 154.045C229.936 153.855 228.194 153.96 226.483 154.325C224.774 154.684 223.102 155.305 221.537 156.134C219.973 156.963 218.528 158.003 217.262 159.216C217.258 159.227 217.243 159.234 217.233 159.243C217.229 159.254 217.213 159.26 217.203 159.269C216.116 160.337 214.661 160.6 213.43 160.215C212.198 159.83 211.195 158.806 211.006 157.291C210.411 152.565 209.648 147.766 208.922 142.924C208.195 138.081 207.5 133.189 207.061 128.277C206.291 119.674 205.402 111 204.418 102.377C203.431 93.759 202.343 85.1899 201.166 76.8139C200.955 75.3225 200.726 73.8301 200.445 72.3422C200.163 70.8544 199.838 69.381 199.44 67.9298C199.043 66.4787 198.569 65.0607 197.997 63.6804C197.426 62.3001 196.755 60.963 195.965 59.6867C195.169 58.4082 194.229 57.206 193.164 56.1127C192.104 55.0217 190.919 54.0528 189.651 53.2475C188.383 52.4423 187.024 51.8039 185.612 51.3795C184.2 50.9551 182.722 50.7457 181.22 50.806C179.52 50.8704 177.884 51.271 176.36 51.9318C174.831 52.5904 173.411 53.5203 172.121 54.6349C170.83 55.7494 169.681 57.0528 168.699 58.4794C167.717 59.9059 166.899 61.4479 166.286 63.0328C165.67 64.6231 165.217 66.2523 164.88 67.9082C164.549 69.5664 164.334 71.2515 164.202 72.9504C164.071 74.6493 164.015 76.3654 164.004 78.0803C163.992 79.7951 164.024 81.5141 164.057 83.2145C164.128 86.9857 164.236 90.5364 164.359 93.9665C164.488 97.3988 164.642 100.72 164.807 104.046C164.977 107.374 165.166 110.703 165.357 114.154C165.554 117.607 165.762 121.178 165.969 124.99C166.098 127.394 166.247 129.794 166.416 132.196C166.579 134.594 166.758 137 166.947 139.396C167.142 141.795 167.344 144.191 167.563 146.593C167.783 148.989 168.012 151.382 168.257 153.782C168.546 156.617 169.108 159.193 169.307 161.644C169.504 164.101 169.344 166.436 168.176 168.798C166.777 171.633 165.333 170.663 163.926 166.466C162.52 162.269 161.136 154.833 159.864 144.738C158.586 134.642 157.292 123.524 155.976 112.929C154.659 102.335 153.319 92.2519 151.948 84.2373C151.606 82.2435 151.254 80.2268 150.846 78.2256C150.437 76.2245 149.974 74.2334 149.411 72.2855C148.848 70.3376 148.18 68.4307 147.37 66.5946C146.559 64.7584 145.602 62.9909 144.452 61.325C143.302 59.659 141.905 58.118 140.334 56.7805C138.762 55.4429 137.018 54.3165 135.183 53.471C133.341 52.6233 131.404 52.0675 129.445 51.8712C127.486 51.6749 125.501 51.8491 123.571 52.4635C122.09 52.9378 120.721 53.6407 119.475 54.5315C118.228 55.4223 117.103 56.4879 116.109 57.6877C115.118 58.8819 114.251 60.2083 113.534 61.6062C112.812 63.0021 112.229 64.4783 111.803 65.9726C111.373 67.4646 111.069 68.9879 110.859 70.5162C110.647 72.0501 110.536 73.5988 110.487 75.1527C110.438 76.7066 110.454 78.2734 110.509 79.8368C110.558 81.3979 110.645 82.9611 110.736 84.5134C111.179 92.0346 111.706 99.551 112.312 107.061C112.924 114.572 113.616 122.072 114.399 129.568C115.175 137.063 116.039 144.547 116.989 152.021C117.939 159.495 118.97 166.957 120.087 174.408C120.194 175.117 120.297 175.836 120.387 176.557C120.471 177.275 120.54 178 120.568 178.715C120.594 179.436 120.58 180.148 120.504 180.853C120.428 181.559 120.293 182.255 120.078 182.944C119.709 184.105 119.146 185.145 118.44 186.097C117.734 187.049 116.893 187.909 115.976 188.721C115.059 189.532 114.069 190.289 113.064 191.035C112.061 191.774 111.039 192.5 110.076 193.236C107.229 195.417 104.682 197.963 102.476 200.785C100.271 203.606 98.4096 206.696 96.9404 209.967C95.4657 213.235 94.3851 216.678 93.7321 220.195C93.0791 223.712 92.8626 227.312 93.1183 230.89C93.1358 231.15 93.169 231.468 93.2178 231.843C93.2687 232.212 93.3297 232.635 93.4085 233.111C93.4895 233.58 93.5805 234.105 93.6937 234.67C93.8068 235.234 93.9322 235.849 94.0775 236.509C99.8675 262.795 113.754 282.153 131.567 294.732C149.381 307.312 171.116 313.124 192.607 312.311C214.096 311.503 235.338 304.076 252.159 290.19C268.979 276.304 281.379 255.958 285.184 229.312L285.21 229.31Z"></path></mask><path d="M285.21 229.31C285.441 227.682 285.65 226.058 285.838 224.426C286.026 222.794 286.188 221.163 286.333 219.527C286.473 217.888 286.591 216.254 286.686 214.617C286.781 212.979 286.851 211.339 286.903 209.697C286.973 207.384 286.994 205.051 286.901 202.731C286.809 200.41 286.606 198.097 286.216 195.824C285.831 193.553 285.269 191.314 284.459 189.141C283.648 186.969 282.595 184.865 281.228 182.847C280.675 182.033 280.069 181.254 279.409 180.53C278.752 179.801 278.043 179.122 277.289 178.494C276.534 177.866 275.737 177.298 274.9 176.783C274.061 176.274 273.185 175.826 272.278 175.456C270.799 174.846 269.369 174.453 267.978 174.246C266.588 174.04 265.244 174.023 263.935 174.172C262.626 174.321 261.359 174.639 260.133 175.094C258.904 175.554 257.717 176.151 256.558 176.867C255.508 177.518 254.379 177.871 253.25 177.952C252.126 178.035 251.005 177.852 249.981 177.441C248.959 177.025 248.034 176.38 247.295 175.537C246.556 174.693 246.004 173.65 245.731 172.445C245.666 172.159 245.601 171.873 245.539 171.582C245.474 171.297 245.417 171.008 245.357 170.724C245.298 170.441 245.246 170.154 245.195 169.867C245.143 169.58 245.095 169.301 245.049 169.016C244.837 167.657 244.503 166.301 244.04 164.983C243.581 163.672 242.998 162.402 242.291 161.221C241.583 160.041 240.751 158.951 239.79 157.994C238.832 157.032 237.748 156.211 236.535 155.554C234.997 154.725 233.336 154.24 231.637 154.045C229.936 153.855 228.194 153.96 226.483 154.325C224.774 154.684 223.102 155.305 221.537 156.134C219.973 156.963 218.528 158.003 217.262 159.216C217.258 159.227 217.243 159.234 217.233 159.243C217.229 159.254 217.213 159.26 217.203 159.269C216.116 160.337 214.661 160.6 213.43 160.215C212.198 159.83 211.195 158.806 211.006 157.291C210.411 152.565 209.648 147.766 208.922 142.924C208.195 138.081 207.5 133.189 207.061 128.277C206.291 119.674 205.402 111 204.418 102.377C203.431 93.759 202.343 85.1899 201.166 76.8139C200.955 75.3225 200.726 73.8301 200.445 72.3422C200.163 70.8544 199.838 69.381 199.44 67.9298C199.043 66.4787 198.569 65.0607 197.997 63.6804C197.426 62.3001 196.755 60.963 195.965 59.6867C195.169 58.4082 194.229 57.206 193.164 56.1127C192.104 55.0217 190.919 54.0528 189.651 53.2475C188.383 52.4423 187.024 51.8039 185.612 51.3795C184.2 50.9551 182.722 50.7457 181.22 50.806C179.52 50.8704 177.884 51.271 176.36 51.9318C174.831 52.5904 173.411 53.5203 172.121 54.6349C170.83 55.7494 169.681 57.0528 168.699 58.4794C167.717 59.9059 166.899 61.4479 166.286 63.0328C165.67 64.6231 165.217 66.2523 164.88 67.9082C164.549 69.5664 164.334 71.2515 164.202 72.9504C164.071 74.6493 164.015 76.3654 164.004 78.0803C163.992 79.7951 164.024 81.5141 164.057 83.2145C164.128 86.9857 164.236 90.5364 164.359 93.9665C164.488 97.3988 164.642 100.72 164.807 104.046C164.977 107.374 165.166 110.703 165.357 114.154C165.554 117.607 165.762 121.178 165.969 124.99C166.098 127.394 166.247 129.794 166.416 132.196C166.579 134.594 166.758 137 166.947 139.396C167.142 141.795 167.344 144.191 167.563 146.593C167.783 148.989 168.012 151.382 168.257 153.782C168.546 156.617 169.108 159.193 169.307 161.644C169.504 164.101 169.344 166.436 168.176 168.798C166.777 171.633 165.333 170.663 163.926 166.466C162.52 162.269 161.136 154.833 159.864 144.738C158.586 134.642 157.292 123.524 155.976 112.929C154.659 102.335 153.319 92.2519 151.948 84.2373C151.606 82.2435 151.254 80.2268 150.846 78.2256C150.437 76.2245 149.974 74.2334 149.411 72.2855C148.848 70.3376 148.18 68.4307 147.37 66.5946C146.559 64.7584 145.602 62.9909 144.452 61.325C143.302 59.659 141.905 58.118 140.334 56.7805C138.762 55.4429 137.018 54.3165 135.183 53.471C133.341 52.6233 131.404 52.0675 129.445 51.8712C127.486 51.6749 125.501 51.8491 123.571 52.4635C122.09 52.9378 120.721 53.6407 119.475 54.5315C118.228 55.4223 117.103 56.4879 116.109 57.6877C115.118 58.8819 114.251 60.2083 113.534 61.6062C112.812 63.0021 112.229 64.4783 111.803 65.9726C111.373 67.4646 111.069 68.9879 110.859 70.5162C110.647 72.0501 110.536 73.5988 110.487 75.1527C110.438 76.7066 110.454 78.2734 110.509 79.8368C110.558 81.3979 110.645 82.9611 110.736 84.5134C111.179 92.0346 111.706 99.551 112.312 107.061C112.924 114.572 113.616 122.072 114.399 129.568C115.175 137.063 116.039 144.547 116.989 152.021C117.939 159.495 118.97 166.957 120.087 174.408C120.194 175.117 120.297 175.836 120.387 176.557C120.471 177.275 120.54 178 120.568 178.715C120.594 179.436 120.58 180.148 120.504 180.853C120.428 181.559 120.293 182.255 120.078 182.944C119.709 184.105 119.146 185.145 118.44 186.097C117.734 187.049 116.893 187.909 115.976 188.721C115.059 189.532 114.069 190.289 113.064 191.035C112.061 191.774 111.039 192.5 110.076 193.236C107.229 195.417 104.682 197.963 102.476 200.785C100.271 203.606 98.4096 206.696 96.9404 209.967C95.4657 213.235 94.3851 216.678 93.7321 220.195C93.0791 223.712 92.8626 227.312 93.1183 230.89C93.1358 231.15 93.169 231.468 93.2178 231.843C93.2687 232.212 93.3297 232.635 93.4085 233.111C93.4895 233.58 93.5805 234.105 93.6937 234.67C93.8068 235.234 93.9322 235.849 94.0775 236.509C99.8675 262.795 113.754 282.153 131.567 294.732C149.381 307.312 171.116 313.124 192.607 312.311C214.096 311.503 235.338 304.076 252.159 290.19C268.979 276.304 281.379 255.958 285.184 229.312L285.21 229.31Z" fill="#F9C763"></path><path d="M285.21 229.31C285.441 227.682 285.65 226.058 285.838 224.426C286.026 222.794 286.188 221.163 286.333 219.527C286.473 217.888 286.591 216.254 286.686 214.617C286.781 212.979 286.851 211.339 286.903 209.697C286.973 207.384 286.994 205.051 286.901 202.731C286.809 200.41 286.606 198.097 286.216 195.824C285.831 193.553 285.269 191.314 284.459 189.141C283.648 186.969 282.595 184.865 281.228 182.847C280.675 182.033 280.069 181.254 279.409 180.53C278.752 179.801 278.043 179.122 277.289 178.494C276.534 177.866 275.737 177.298 274.9 176.783C274.061 176.274 273.185 175.826 272.278 175.456C270.799 174.846 269.369 174.453 267.978 174.246C266.588 174.04 265.244 174.023 263.935 174.172C262.626 174.321 261.359 174.639 260.133 175.094C258.904 175.554 257.717 176.151 256.558 176.867C255.508 177.518 254.379 177.871 253.25 177.952C252.126 178.035 251.005 177.852 249.981 177.441C248.959 177.025 248.034 176.38 247.295 175.537C246.556 174.693 246.004 173.65 245.731 172.445C245.666 172.159 245.601 171.873 245.539 171.582C245.474 171.297 245.417 171.008 245.357 170.724C245.298 170.441 245.246 170.154 245.195 169.867C245.143 169.58 245.095 169.301 245.049 169.016C244.837 167.657 244.503 166.301 244.04 164.983C243.581 163.672 242.998 162.402 242.291 161.221C241.583 160.041 240.751 158.951 239.79 157.994C238.832 157.032 237.748 156.211 236.535 155.554C234.997 154.725 233.336 154.24 231.637 154.045C229.936 153.855 228.194 153.96 226.483 154.325C224.774 154.684 223.102 155.305 221.537 156.134C219.973 156.963 218.528 158.003 217.262 159.216C217.258 159.227 217.243 159.234 217.233 159.243C217.229 159.254 217.213 159.26 217.203 159.269C216.116 160.337 214.661 160.6 213.43 160.215C212.198 159.83 211.195 158.806 211.006 157.291C210.411 152.565 209.648 147.766 208.922 142.924C208.195 138.081 207.5 133.189 207.061 128.277C206.291 119.674 205.402 111 204.418 102.377C203.431 93.759 202.343 85.1899 201.166 76.8139C200.955 75.3225 200.726 73.8301 200.445 72.3422C200.163 70.8544 199.838 69.381 199.44 67.9298C199.043 66.4787 198.569 65.0607 197.997 63.6804C197.426 62.3001 196.755 60.963 195.965 59.6867C195.169 58.4082 194.229 57.206 193.164 56.1127C192.104 55.0217 190.919 54.0528 189.651 53.2475C188.383 52.4423 187.024 51.8039 185.612 51.3795C184.2 50.9551 182.722 50.7457 181.22 50.806C179.52 50.8704 177.884 51.271 176.36 51.9318C174.831 52.5904 173.411 53.5203 172.121 54.6349C170.83 55.7494 169.681 57.0528 168.699 58.4794C167.717 59.9059 166.899 61.4479 166.286 63.0328C165.67 64.6231 165.217 66.2523 164.88 67.9082C164.549 69.5664 164.334 71.2515 164.202 72.9504C164.071 74.6493 164.015 76.3654 164.004 78.0803C163.992 79.7951 164.024 81.5141 164.057 83.2145C164.128 86.9857 164.236 90.5364 164.359 93.9665C164.488 97.3988 164.642 100.72 164.807 104.046C164.977 107.374 165.166 110.703 165.357 114.154C165.554 117.607 165.762 121.178 165.969 124.99C166.098 127.394 166.247 129.794 166.416 132.196C166.579 134.594 166.758 137 166.947 139.396C167.142 141.795 167.344 144.191 167.563 146.593C167.783 148.989 168.012 151.382 168.257 153.782C168.546 156.617 169.108 159.193 169.307 161.644C169.504 164.101 169.344 166.436 168.176 168.798C166.777 171.633 165.333 170.663 163.926 166.466C162.52 162.269 161.136 154.833 159.864 144.738C158.586 134.642 157.292 123.524 155.976 112.929C154.659 102.335 153.319 92.2519 151.948 84.2373C151.606 82.2435 151.254 80.2268 150.846 78.2256C150.437 76.2245 149.974 74.2334 149.411 72.2855C148.848 70.3376 148.18 68.4307 147.37 66.5946C146.559 64.7584 145.602 62.9909 144.452 61.325C143.302 59.659 141.905 58.118 140.334 56.7805C138.762 55.4429 137.018 54.3165 135.183 53.471C133.341 52.6233 131.404 52.0675 129.445 51.8712C127.486 51.6749 125.501 51.8491 123.571 52.4635C122.09 52.9378 120.721 53.6407 119.475 54.5315C118.228 55.4223 117.103 56.4879 116.109 57.6877C115.118 58.8819 114.251 60.2083 113.534 61.6062C112.812 63.0021 112.229 64.4783 111.803 65.9726C111.373 67.4646 111.069 68.9879 110.859 70.5162C110.647 72.0501 110.536 73.5988 110.487 75.1527C110.438 76.7066 110.454 78.2734 110.509 79.8368C110.558 81.3979 110.645 82.9611 110.736 84.5134C111.179 92.0346 111.706 99.551 112.312 107.061C112.924 114.572 113.616 122.072 114.399 129.568C115.175 137.063 116.039 144.547 116.989 152.021C117.939 159.495 118.97 166.957 120.087 174.408C120.194 175.117 120.297 175.836 120.387 176.557C120.471 177.275 120.54 178 120.568 178.715C120.594 179.436 120.58 180.148 120.504 180.853C120.428 181.559 120.293 182.255 120.078 182.944C119.709 184.105 119.146 185.145 118.44 186.097C117.734 187.049 116.893 187.909 115.976 188.721C115.059 189.532 114.069 190.289 113.064 191.035C112.061 191.774 111.039 192.5 110.076 193.236C107.229 195.417 104.682 197.963 102.476 200.785C100.271 203.606 98.4096 206.696 96.9404 209.967C95.4657 213.235 94.3851 216.678 93.7321 220.195C93.0791 223.712 92.8626 227.312 93.1183 230.89C93.1358 231.15 93.169 231.468 93.2178 231.843C93.2687 232.212 93.3297 232.635 93.4085 233.111C93.4895 233.58 93.5805 234.105 93.6937 234.67C93.8068 235.234 93.9322 235.849 94.0775 236.509C99.8675 262.795 113.754 282.153 131.567 294.732C149.381 307.312 171.116 313.124 192.607 312.311C214.096 311.503 235.338 304.076 252.159 290.19C268.979 276.304 281.379 255.958 285.184 229.312L285.21 229.31Z" stroke="white" stroke-width="40" mask="url(#path-1-outside-1_173_129)"></path></g><path d="M134.192 188.587C140.946 186.712 147.786 185.151 154.682 183.915C161.577 182.68 168.533 181.772 175.521 181.202C179.159 180.906 182.807 180.697 186.453 180.589C190.099 180.481 193.752 180.452 197.401 180.529C199.152 180.561 200.905 180.619 202.652 180.694C204.404 180.77 206.148 180.869 207.898 180.983C209.542 181.093 211.41 181.088 213.22 181.308C215.03 181.528 216.781 181.96 218.182 182.944C221.344 185.17 222.168 188.769 221.723 192.419C221.275 196.074 219.556 199.785 217.628 202.24C215.51 204.937 212.815 207.006 209.846 208.644C206.878 210.282 203.637 211.483 200.431 212.437C196.949 213.479 193.413 214.354 189.845 215.115C186.278 215.875 182.69 216.527 179.107 217.116C177.35 217.406 175.59 217.669 173.824 217.916C172.06 218.159 170.297 218.382 168.524 218.583C167.11 218.741 165.387 218.734 163.705 218.881C162.022 219.029 160.391 219.336 159.142 220.137C157.868 220.954 157.302 222.322 156.997 223.819C156.688 225.309 156.637 226.932 156.395 228.251C156.014 230.308 155.536 232.353 154.969 234.368C154.401 236.383 153.755 238.374 153.018 240.335C151.575 244.199 149.803 247.915 147.741 251.465C145.679 255.016 143.32 258.385 140.699 261.569C140.165 262.215 140.418 262.923 140.937 263.312C141.456 263.701 142.241 263.77 142.767 263.128C145.116 260.281 147.262 257.271 149.179 254.12C151.096 250.97 152.786 247.685 154.231 244.284C154.992 242.485 155.68 240.663 156.302 238.815C156.924 236.967 157.467 235.094 157.942 233.201C158.133 232.427 158.32 231.65 158.493 230.875C158.666 230.099 158.824 229.312 158.968 228.531C159.113 227.745 159.164 226.54 159.325 225.392C159.487 224.245 159.759 223.153 160.354 222.595C160.973 222.008 161.89 221.774 162.853 221.666C163.815 221.558 164.829 221.577 165.64 221.498C166.662 221.4 167.683 221.29 168.704 221.179C169.724 221.068 170.744 220.944 171.76 220.813C173.662 220.574 175.559 220.302 177.457 220.011C179.349 219.718 181.244 219.4 183.129 219.06C186.759 218.4 190.416 217.7 194.039 216.847C197.66 216 201.247 214.999 204.723 213.745C207.807 212.635 210.835 211.217 213.562 209.389C216.289 207.56 218.717 205.315 220.599 202.557C222.312 200.036 223.598 197.067 224.106 194.013C224.615 190.96 224.354 187.812 222.982 184.941C221.402 181.634 218.779 180.065 215.756 179.271C212.733 178.477 209.317 178.466 206.149 178.281C202.392 178.06 198.633 177.939 194.869 177.912C191.105 177.885 187.347 177.955 183.584 178.118C175.163 178.478 166.771 179.326 158.456 180.654C150.141 181.982 141.899 183.771 133.782 186.027C132.99 186.248 132.686 187.003 132.782 187.643C132.878 188.284 133.372 188.815 134.176 188.594L134.192 188.587Z" fill="black"></path><path d="M207.275 212.279C206.892 214.501 207.326 216.696 208.336 218.604C209.346 220.513 210.93 222.141 212.859 223.233C214.963 224.425 217.341 224.863 219.705 224.725C222.074 224.588 224.428 223.881 226.509 222.787C228.846 221.56 230.85 219.876 232.606 217.95C234.363 216.024 235.87 213.847 237.22 211.633C238.778 209.07 240.211 206.438 241.527 203.748C242.843 201.058 244.043 198.309 245.133 195.517C244.716 195.415 244.301 195.309 243.885 195.208L242.636 194.899C242.256 198.111 241.79 201.346 241.399 204.586C241.008 207.825 240.691 211.069 240.61 214.31C240.547 216.912 240.708 219.539 241.272 222.064C241.832 224.582 242.796 226.992 244.335 229.167C247.693 233.9 252.766 236.379 257.985 236.658C263.204 236.936 268.576 235.029 272.529 230.995C273.112 230.401 272.88 229.719 272.361 229.33C271.843 228.941 271.035 228.851 270.455 229.434C266.619 233.349 261.304 234.727 256.398 233.849C251.498 232.973 247.004 229.847 244.815 224.77C243.884 222.613 243.435 220.33 243.26 218.009C243.086 215.688 243.199 213.328 243.395 211.033C243.621 208.388 243.919 205.739 244.238 203.099C244.557 200.46 244.895 197.821 245.209 195.179C245.294 194.451 244.803 193.959 244.226 193.813C243.649 193.668 242.981 193.88 242.713 194.561C241.879 196.687 240.988 198.783 240.03 200.854C239.068 202.923 238.041 204.96 236.942 206.955C235.829 208.971 234.655 211.013 233.315 212.927C231.976 214.84 230.475 216.633 228.709 218.149C227.142 219.497 225.303 220.636 223.34 221.351C221.368 222.07 219.272 222.365 217.166 222.028C214.923 221.669 212.896 220.456 211.523 218.759C210.152 217.057 209.444 214.868 209.837 212.555C209.977 211.735 209.405 211.255 208.76 211.185C208.116 211.114 207.402 211.46 207.262 212.28L207.275 212.279Z" fill="black"></path><path d="M186.314 180.845C186.677 184.39 188.546 187.545 191.195 189.834C193.846 192.118 197.278 193.531 200.784 193.583C204.399 193.634 207.782 192.49 210.678 190.556C213.573 188.623 215.969 185.896 217.622 182.787C218.013 182.053 217.605 181.448 217.002 181.209C216.398 180.971 215.604 181.102 215.213 181.835C213.851 184.4 211.812 186.703 209.362 188.362C206.911 190.02 204.057 191.031 201.067 191.005C198.108 190.978 195.222 189.838 192.99 187.955C190.759 186.071 189.193 183.448 188.88 180.451C188.794 179.624 188.109 179.302 187.472 179.406C186.831 179.502 186.233 180.021 186.319 180.848L186.314 180.845Z" fill="black"></path><defs><filter id="filter0_d_173_129" x="69.0137" y="28.7959" width="241.95" height="309.589" filterUnits="userSpaceOnUse" color-interpolation-filters="sRGB"><feFlood flood-opacity="0" result="BackgroundImageFix"></feFlood><feColorMatrix in="SourceAlpha" type="matrix" values="0 0 0 0 0 0 0 0 0 0 0 0 0 0 0 0 0 0 127 0" result="hardAlpha"></feColorMatrix><feOffset dy="2"></feOffset><feGaussianBlur stdDeviation="2"></feGaussianBlur><feComposite in2="hardAlpha" operator="out"></feComposite><feColorMatrix type="matrix" values="0 0 0 0 0 0 0 0 0 0 0 0 0 0 0 0 0 0 0.25 0"></feColorMatrix><feBlend mode="normal" in2="BackgroundImageFix" result="effect1_dropShadow_173_129"></feBlend><feBlend mode="normal" in="SourceGraphic" in2="effect1_dropShadow_173_129" result="shape"></feBlend></filter></defs></svg>